<?xml version="1.0" encoding="utf-8"?>
<!-- Generator: Adobe Illustrator 23.0.1, SVG Export Plug-In . SVG Version: 6.00 Build 0)  -->
<svg version="1.1" id="Layer_1" xmlns="http://www.w3.org/2000/svg" xmlns:xlink="http://www.w3.org/1999/xlink" x="0px" y="0px"
	 viewBox="0 0 324 311" style="enable-background:new 0 0 324 311;" xml:space="preserve">
<style type="text/css">
	.st0{}
	.st1{fill:#A98448;}
	.st2{fill:#E0BA52;}
	.st3{fill:#BF9A50;}
	.st4{fill:#306090;}
	.st5{fill:#FFFFFF;}
	.st6{font-family:sans-serif;}
	.st7{font-size:22.3222px;}
	.st8{font-size:26.835px;}
</style>
<g class="st0">
	<g>
		<g>
			<polygon class="st1" points="28.04,233.08 117.13,232.52 72.1,155.65 			"/>
			<polygon class="st2" points="117.35,232.49 72.04,207.38 72.3,155.59 			"/>
			<polygon class="st3" points="27.97,232.96 72.11,207.1 72.38,155.3 			"/>
		</g>
		<g>
			<polygon class="st1" points="72.48,154.91 115.44,76.86 26.37,78.67 			"/>
			<polygon class="st2" points="115.52,76.65 71.51,103.96 26.42,78.46 			"/>
			<polygon class="st3" points="72.34,154.91 71.3,103.76 26.21,78.26 			"/>
		</g>
	</g>
	<g>
		<g>
			<polygon class="st1" points="295.17,76.2 206.08,76.76 251.11,153.63 			"/>
			<polygon class="st2" points="205.86,76.79 251.17,101.9 250.91,153.69 			"/>
			<polygon class="st3" points="295.24,76.32 251.1,102.18 250.83,153.97 			"/>
		</g>
		<g>
			<polygon class="st1" points="250.73,154.37 207.76,232.42 296.84,230.61 			"/>
			<polygon class="st2" points="207.69,232.63 251.7,205.32 296.79,230.82 			"/>
			<polygon class="st3" points="250.87,154.37 251.91,205.52 297,231.02 			"/>
		</g>
	</g>
	<g>
		<polygon class="st1" points="161.38,310.72 205.93,233.57 116.84,233.57 		"/>
		<polygon class="st2" points="206.01,233.36 161.45,259.77 116.89,233.36 		"/>
		<polygon class="st3" points="161.25,310.72 161.25,259.56 116.69,233.15 		"/>
	</g>
	<g>
		<polygon class="st1" points="160.86,-0.24 116.32,76.91 205.41,76.91 		"/>
		<polygon class="st2" points="116.23,77.12 160.79,50.71 205.35,77.12 		"/>
		<polygon class="st3" points="161,-0.24 161,50.92 205.56,77.33 		"/>
	</g>
</g>
<g>
	<circle class="st4" cx="24.27" cy="152.27" r="24.73"/>
	<g>
		<text transform="matrix(1 0 0 1 10.3076 159.7676)" class="st5 st6 st7">Be</text>
	</g>
</g>
<g>
	<circle class="st4" cx="236.27" cy="30.16" r="29.73"/>
	<g>
		<text transform="matrix(1 0 0 1 223.6904 37.7749)" class="st5 st6 st8">Al</text>
	</g>
</g>
<g>
	<circle class="st4" cx="86.27" cy="30.16" r="29.73"/>
	<g>
		<text transform="matrix(1 0 0 1 73.6904 37.7749)" class="st5 st6 st8">Al</text>
	</g>
</g>
<g>
	<circle class="st4" cx="86.27" cy="277.27" r="24.73"/>
	<g>
		<text transform="matrix(1 0 0 1 72.3076 284.7676)" class="st5 st6 st7">Be</text>
	</g>
</g>
<g>
	<circle class="st4" cx="299.27" cy="152.27" r="24.73"/>
	<g>
		<text transform="matrix(1 0 0 1 285.3076 159.7676)" class="st5 st6 st7">Be</text>
	</g>
</g>
</svg>
